<svg width="270" height="70" fill="none" xmlns="http://www.w3.org/2000/svg">
  <path d="M.320312 69.0001H4.26918v-4.3182h2.1875c3.31676 0 5.53972-1.9531 5.53972-5.0852 0-3.0966-2.16614-5.1421-5.39768-5.1421H.320312v14.5455Zm3.948868-7.3864V57.608h1.39204c1.38495 0 2.21591.7387 2.21591 1.9887 0 1.2429-.83096 2.017-2.21591 2.017H4.26918Zm9.17612 7.3864h3.9489v-4.8012h1.3636l2.5568 4.8012h4.2898l-2.9545-5.4262c1.5483-.7457 2.4715-2.159 2.4715-4.1761 0-3.0966-2.1661-4.9432-5.3977-4.9432h-6.2784v14.5455Zm3.9489-7.8693V57.608h1.392c1.385 0 2.2159.5398 2.2159 1.7898 0 1.2429-.8309 1.733-2.2159 1.733h-1.392Zm13.189 7.8693.8381-2.7841h4.8011l.8381 2.7841h4.2613l-4.8011-14.5455H31.123l-4.8012 14.5455h4.2614Zm1.733-5.7387 1.4488-4.8011h.1137l1.4488 4.8011h-3.0113Zm23.3026-3.3521c-.3125-3.608-2.9545-5.6534-6.6193-5.6534-3.9205 0-7.0171 2.6136-7.0171 7.4716 0 4.8366 3.0114 7.4715 7.0171 7.4715 4.2614 0 6.4204-2.9545 6.6193-5.4261l-4.0057-.0284c-.1988 1.2429-1.0795 2.017-2.5284 2.017-1.9247 0-3.0398-1.3636-3.0398-4.034 0-2.5285 1.0796-4.0341 3.0682-4.0341 1.5199 0 2.3864.8948 2.5 2.2159h4.0057Zm1.3934-2.2729h4.375v11.3637h3.8921V57.6364h4.375v-3.1818H57.0122v3.1818Zm18.0773-3.1818h-3.9489v14.5455h3.9489V54.4546Zm15.4512 5.4547c-.3125-3.608-2.9546-5.6534-6.6193-5.6534-3.9205 0-7.0171 2.6136-7.0171 7.4716 0 4.8366 3.0114 7.4715 7.0171 7.4715 4.2613 0 6.4204-2.9545 6.6193-5.4261l-4.0057-.0284c-.1989 1.2429-1.0795 2.017-2.5284 2.017-1.9247 0-3.0398-1.3636-3.0398-4.034 0-2.5285 1.0796-4.0341 3.0682-4.0341 1.5199 0 2.3864.8948 2.5 2.2159h4.0057Zm10.3993-5.4547v8.9773c0 1.3565-.973 2.3295-2.3296 2.3295-1.3565 0-2.3295-.973-2.3295-2.3295v-8.9773H92.332v9.3182c0 3.3239 2.5142 5.3977 6.2784 5.3977 3.7356 0 6.2786-2.0738 6.2786-5.3977v-9.3182h-3.949Zm5.826 0v14.5455h3.863v-8.4659h.114l3.239 8.3522h2.329l3.239-8.2954h.113v8.4091h3.864V54.4546h-4.915l-3.38 8.2387h-.171l-3.381-8.2387h-4.914Zm26.395 14.5455.838-2.7841h4.801l.838 2.7841h4.262l-4.801-14.5455h-5.398L128.9 69.0001h4.261Zm1.733-5.7387 1.449-4.8011h.114l1.449 4.8011h-3.012Zm10.407 5.7387h3.949v-4.8012h1.363l2.557 4.8012h4.29l-2.955-5.4262c1.549-.7457 2.472-2.159 2.472-4.1761 0-3.0966-2.166-4.9432-5.398-4.9432h-6.278v14.5455Zm3.949-7.8693V57.608h1.392c1.385 0 2.216.5398 2.216 1.7898 0 1.2429-.831 1.733-2.216 1.733h-1.392Zm9.012-3.4944h4.375v11.3637h3.892V57.6364h4.375v-3.1818h-12.642v3.1818Zm27.559 1.6195h3.991c-.305-2.9191-2.954-5-6.392-5-3.92 0-7.102 2.6988-7.102 7.5 0 4.6022 2.884 7.4431 7.131 7.4431 3.807 0 6.534-2.3295 6.534-6.3068v-2.017h-6.449v2.8125h2.642c-.035 1.2642-.93 2.0738-2.699 2.0738-2.045 0-3.096-1.5056-3.096-4.0625 0-2.5213 1.136-4.0056 3.125-4.0056 1.235 0 2.074.5681 2.315 1.5625Zm9.332 9.7442.838-2.7841h4.802l.838 2.7841h4.261l-4.801-14.5455h-5.398l-4.801 14.5455h4.261Zm1.733-5.7387 1.449-4.8011h.114l1.449 4.8011h-3.012Zm10.407 5.7387h9.83v-3.1818h-5.881V54.4546h-3.949v14.5455Zm11.426 0h9.829v-3.1818h-5.88V54.4546h-3.949v14.5455Zm11.426 0h10.454v-3.1818h-6.506v-2.5h5.995v-3.1819h-5.995v-2.5h6.534v-3.1818h-10.482v14.5455Zm12.441 0h3.949v-4.8012h1.363l2.557 4.8012h4.29l-2.955-5.4262c1.549-.7457 2.472-2.159 2.472-4.1761 0-3.0966-2.166-4.9432-5.398-4.9432h-6.278v14.5455Zm3.949-7.8693V57.608h1.392c1.385 0 2.216.5398 2.216 1.7898 0 1.2429-.831 1.733-2.216 1.733h-1.392Zm8.13-6.6762 5.341 9.9716v4.5739h3.92v-4.5739l5.341-9.9716h-4.403l-2.841 5.9091h-.114l-2.84-5.9091h-4.404Z" fill="#fff"/>
  <path d="M118 2c0-1.104569.895-2 2-2h28c1.105 0 2 .895431 2 2v28c0 1.1046-.895 2-2 2h-28c-1.105 0-2-.8954-2-2V2Z" fill="#0278FE"/>
  <path d="M150 6h-32v2h32V6Z" fill="#2A2C2F"/>
  <path d="M131 6h-2v26h2V6Z" fill="#2A2C2F"/>
</svg>
